{
  "accessors": [
    {
      "bufferView": 2,
      "componentType": 5126,
      "count": 65532,
      "max": [
        3.9894301891326904,
        3.9070730209350586,
        2.3156256675720215
      ],
      "min": [
        -3.9899396896362305,
        -3.5062124729156494,
        -3.9899396896362305
      ],
      "type": "VEC3"
    },
    {
      "bufferView": 2,
      "byteOffset": 786384,
      "componentType": 5126,
      "count": 65532,
      "max": [
        0.999984860420227,
        0.9999219179153442,
        0.5803573131561279
      ],
      "min": [
        -0.9998571872711182,
        -0.999984860420227,
        -0.999984860420227
      ],
      "type": "VEC3"
    },
    {
      "bufferView": 1,
      "componentType": 5126,
      "count": 65532,
      "max": [
        0.875,
        0.9960216283798218
      ],
      "min": [
        0.0006192768341861665,
        0.0017515704967081547
      ],
      "type": "VEC2"
    },
    {
      "bufferView": 0,
      "componentType": 5125,
      "count": 390867,
      "type": "SCALAR"
    },
    {
      "bufferView": 2,
      "byteOffset": 1572768,
      "componentType": 5126,
      "count": 65532,
      "max": [
        3.9896931648254395,
        3.934966802597046,
        3.9899396896362305
      ],
      "min": [
        -3.9899396896362305,
        -3.506211757659912,
        -2.3277170658111572
      ],
      "type": "VEC3"
    },
    {
      "bufferView": 2,
      "byteOffset": 2359152,
      "componentType": 5126,
      "count": 65532,
      "max": [
        0.999984860420227,
        0.999984860420227,
        0.999984860420227
      ],
      "min": [
        -0.999984860420227,
        -0.999984622001648,
        -0.5833877325057983
      ],
      "type": "VEC3"
    },
    {
      "bufferView": 1,
      "byteOffset": 524256,
      "componentType": 5126,
      "count": 65532,
      "max": [
        1.125,
        0.9982484579086304
      ],
      "min": [
        0.051208190619945526,
        0.0017653079703450203
      ],
      "type": "VEC2"
    },
    {
      "bufferView": 0,
      "byteOffset": 1563468,
      "componentType": 5125,
      "count": 389337,
      "type": "SCALAR"
    },
    {
      "bufferView": 2,
      "byteOffset": 3145536,
      "componentType": 5126,
      "count": 2331,
      "max": [
        2.3156256675720215,
        3.8998939990997314,
        3.9896883964538574
      ],
      "min": [
        -2.4278643131256104,
        -2.3036274909973145,
        -0.016149966046214104
      ],
      "type": "VEC3"
    },
    {
      "bufferView": 2,
      "byteOffset": 3173508,
      "componentType": 5126,
      "count": 2331,
      "max": [
        0.6084873080253601,
        0.9999219179153442,
        0.9999219179153442
      ],
      "min": [
        -0.5803573131561279,
        -0.5773503184318542,
        -0.004271048586815596
      ],
      "type": "VEC3"
    },
    {
      "bufferView": 1,
      "byteOffset": 1048512,
      "componentType": 5126,
      "count": 2331,
      "max": [
        1.0512081384658813,
        0.9960216283798218
      ],
      "min": [
        0.6243783235549927,
        0.30408671498298645
      ],
      "type": "VEC2"
    },
    {
      "bufferView": 0,
      "byteOffset": 3120816,
      "componentType": 5125,
      "count": 12384,
      "type": "SCALAR"
    }
  ],
  "asset": {
    "extras": {
      "author": "ariadnedesignsai (https://sketchfab.com/ariadneaidesign)",
      "license": "CC-BY-NC-4.0 (http://creativecommons.org/licenses/by-nc/4.0/)",
      "source": "https://sketchfab.com/3d-models/ariandes-hideaway-magical-skybox-9cb3be8d19da452ea2dedb6edbe7ebb0",
      "title": "Ariande's Hideaway - Magical Skybox"
    },
    "generator": "Sketchfab-15.62.0",
    "version": "2.0"
  },
  "bufferViews": [
    {
      "buffer": 0,
      "byteLength": 3170352,
      "name": "floatBufferViews",
      "target": 34963
    },
    {
      "buffer": 0,
      "byteLength": 1067160,
      "byteOffset": 3170352,
      "byteStride": 8,
      "name": "floatBufferViews",
      "target": 34962
    },
    {
      "buffer": 0,
      "byteLength": 3201480,
      "byteOffset": 4237512,
      "byteStride": 12,
      "name": "floatBufferViews",
      "target": 34962
    }
  ],
  "buffers": [
    {
      "byteLength": 7438992,
      "uri": "scene.bin"
    }
  ],
  "images": [
    {
      "uri": "textures/material_0_baseColor.png"
    }
  ],
  "materials": [
    {
      "doubleSided": true,
      "name": "material_0",
      "pbrMetallicRoughness": {
        "baseColorTexture": {
          "index": 0
        },
        "metallicFactor": 0.0,
        "roughnessFactor": 0.9
      }
    }
  ],
  "meshes": [
    {
      "name": "Object_0",
      "primitives": [
        {
          "attributes": {
            "NORMAL": 1,
            "POSITION": 0,
            "TEXCOORD_0": 2
          },
          "indices": 3,
          "material": 0,
          "mode": 4
        }
      ]
    },
    {
      "name": "Object_1",
      "primitives": [
        {
          "attributes": {
            "NORMAL": 5,
            "POSITION": 4,
            "TEXCOORD_0": 6
          },
          "indices": 7,
          "material": 0,
          "mode": 4
        }
      ]
    },
    {
      "name": "Object_2",
      "primitives": [
        {
          "attributes": {
            "NORMAL": 9,
            "POSITION": 8,
            "TEXCOORD_0": 10
          },
          "indices": 11,
          "material": 0,
          "mode": 4
        }
      ]
    }
  ],
  "nodes": [
    {
      "children": [
        1
      ],
      "matrix": [
        1.0,
        0.0,
        0.0,
        0.0,
        0.0,
        2.220446049250313e-16,
        -1.0,
        0.0,
        0.0,
        1.0,
        2.220446049250313e-16,
        0.0,
        0.0,
        0.0,
        0.0,
        1.0
      ],
      "name": "Sketchfab_model"
    },
    {
      "children": [
        2
      ],
      "name": "root"
    },
    {
      "children": [
        3
      ],
      "matrix": [
        1.0,
        0.0,
        0.0,
        0.0,
        0.0,
        2.220446049250313e-16,
        1.0,
        0.0,
        0.0,
        -1.0,
        2.220446049250313e-16,
        0.0,
        0.0,
        0.0,
        0.0,
        1.0
      ],
      "name": "GLTF_SceneRootNode"
    },
    {
      "children": [
        4,
        5,
        6
      ],
      "matrix": [
        1.2999999523162842,
        0.0,
        0.0,
        0.0,
        0.0,
        1.2999999523162842,
        0.0,
        0.0,
        0.0,
        0.0,
        1.2999999523162842,
        0.0,
        0.0,
        0.0,
        0.0,
        1.0
      ],
      "name": "skybox_mesh_0"
    },
    {
      "mesh": 0,
      "name": "Object_4"
    },
    {
      "mesh": 1,
      "name": "Object_5"
    },
    {
      "mesh": 2,
      "name": "Object_6"
    }
  ],
  "samplers": [
    {
      "magFilter": 9729,
      "minFilter": 9987,
      "wrapS": 33071,
      "wrapT": 33071
    }
  ],
  "scene": 0,
  "scenes": [
    {
      "name": "Sketchfab_Scene",
      "nodes": [
        0
      ]
    }
  ],
  "textures": [
    {
      "sampler": 0,
      "source": 0
    }
  ]
}
