{
  "accessors": [
    {
      "bufferView": 2,
      "componentType": 5126,
      "count": 3848,
      "max": [
        -456.95098876953125,
        61.76567840576172,
        469.7361145019531
      ],
      "min": [
        -623.2319946289063,
        -96.6669921875,
        410.1182861328125
      ],
      "type": "VEC3"
    },
    {
      "bufferView": 2,
      "byteOffset": 46176,
      "componentType": 5126,
      "count": 3848,
      "max": [
        0.9979261159896851,
        0.9995867609977722,
        0.9999415278434753
      ],
      "min": [
        -0.9960335493087769,
        -0.9999443292617798,
        -0.9999602437019348
      ],
      "type": "VEC3"
    },
    {
      "bufferView": 1,
      "componentType": 5126,
      "count": 3848,
      "max": [
        0.0,
        0.0
      ],
      "min": [
        0.0,
        0.0
      ],
      "type": "VEC2"
    },
    {
      "bufferView": 0,
      "componentType": 5125,
      "count": 21312,
      "type": "SCALAR"
    },
    {
      "bufferView": 2,
      "byteOffset": 92352,
      "componentType": 5126,
      "count": 8948,
      "max": [
        -457.1289978027344,
        61.47521209716797,
        476.2234802246094
      ],
      "min": [
        -622.9979858398438,
        -96.14321899414063,
        400.4234313964844
      ],
      "type": "VEC3"
    },
    {
      "bufferView": 2,
      "byteOffset": 199728,
      "componentType": 5126,
      "count": 8948,
      "max": [
        0.9986642003059387,
        0.9998520016670227,
        0.9994555711746216
      ],
      "min": [
        -0.9997584819793701,
        -0.9993438124656677,
        -0.9997338056564331
      ],
      "type": "VEC3"
    },
    {
      "bufferView": 1,
      "byteOffset": 30784,
      "componentType": 5126,
      "count": 8948,
      "max": [
        -0.07165549695491791,
        0.4372279942035675
      ],
      "min": [
        -0.4544849991798401,
        0.2620289921760559
      ],
      "type": "VEC2"
    },
    {
      "bufferView": 0,
      "byteOffset": 85248,
      "componentType": 5125,
      "count": 51888,
      "type": "SCALAR"
    },
    {
      "bufferView": 2,
      "byteOffset": 307104,
      "componentType": 5126,
      "count": 4888,
      "max": [
        -507.1249694824219,
        -47.6312370300293,
        463.0716247558594
      ],
      "min": [
        -600.8679809570313,
        -70.87345886230469,
        419.1041564941406
      ],
      "type": "VEC3"
    },
    {
      "bufferView": 2,
      "byteOffset": 365760,
      "componentType": 5126,
      "count": 4888,
      "max": [
        0.9982867240905762,
        0.9996829032897949,
        0.9996356964111328
      ],
      "min": [
        -0.9997934103012085,
        -0.9999692440032959,
        -0.9991219639778137
      ],
      "type": "VEC3"
    },
    {
      "bufferView": 1,
      "byteOffset": 102368,
      "componentType": 5126,
      "count": 4888,
      "max": [
        0.0,
        0.0
      ],
      "min": [
        0.0,
        0.0
      ],
      "type": "VEC2"
    },
    {
      "bufferView": 0,
      "byteOffset": 292800,
      "componentType": 5125,
      "count": 27072,
      "type": "SCALAR"
    },
    {
      "bufferView": 2,
      "byteOffset": 424416,
      "componentType": 5126,
      "count": 1948,
      "max": [
        -508.16400146484375,
        -48.81591796875,
        462.8846740722656
      ],
      "min": [
        -599.9210205078125,
        -70.37271118164063,
        419.5729675292969
      ],
      "type": "VEC3"
    },
    {
      "bufferView": 2,
      "byteOffset": 447792,
      "componentType": 5126,
      "count": 1948,
      "max": [
        0.9982867240905762,
        0.9992319345474243,
        0.9961096048355103
      ],
      "min": [
        -0.9973855018615723,
        -0.9983230829238892,
        -0.9936854243278503
      ],
      "type": "VEC3"
    },
    {
      "bufferView": 1,
      "byteOffset": 141472,
      "componentType": 5126,
      "count": 1948,
      "max": [
        -0.15085799992084503,
        0.23413600027561188
      ],
      "min": [
        -0.3594050109386444,
        0.16852200031280518
      ],
      "type": "VEC2"
    },
    {
      "bufferView": 0,
      "byteOffset": 401088,
      "componentType": 5125,
      "count": 9408,
      "type": "SCALAR"
    }
  ],
  "asset": {
    "extras": {
      "author": "AQUILA miniatures (https://sketchfab.com/AQUILA_miniatures)",
      "license": "CC-BY-NC-SA-4.0 (http://creativecommons.org/licenses/by-nc-sa/4.0/)",
      "source": "https://sketchfab.com/3d-models/coin-purse-03b55ef1a7ac4f89817f15a75acf35bc",
      "title": "Coin Purse"
    },
    "generator": "Sketchfab-12.68.0",
    "version": "2.0"
  },
  "bufferViews": [
    {
      "buffer": 0,
      "byteLength": 438720,
      "name": "floatBufferViews",
      "target": 34963
    },
    {
      "buffer": 0,
      "byteLength": 157056,
      "byteOffset": 438720,
      "byteStride": 8,
      "name": "floatBufferViews",
      "target": 34962
    },
    {
      "buffer": 0,
      "byteLength": 471168,
      "byteOffset": 595776,
      "byteStride": 12,
      "name": "floatBufferViews",
      "target": 34962
    }
  ],
  "buffers": [
    {
      "byteLength": 1066944,
      "uri": "scene.bin"
    }
  ],
  "images": [
    {
      "uri": "textures/Cowhide_Leather_FCL2PSL002_FRONT_3848_baseColor.png"
    },
    {
      "uri": "textures/Cowhide_Leather_FCL2PSL002_FRONT_3848_metallicRoughness.png"
    },
    {
      "uri": "textures/Linen_FCL1PSH001_FRONT_3811_baseColor.png"
    }
  ],
  "materials": [
    {
      "doubleSided": true,
      "name": "Cowhide_Leather_FCL2PSL002_FRONT_3848",
      "pbrMetallicRoughness": {
        "baseColorTexture": {
          "index": 0
        },
        "metallicRoughnessTexture": {
          "index": 1
        },
        "roughnessFactor": 0.6
      }
    },
    {
      "doubleSided": true,
      "name": "Linen_FCL1PSH001_FRONT_3811",
      "pbrMetallicRoughness": {
        "baseColorTexture": {
          "index": 2
        },
        "metallicRoughnessTexture": {
          "index": 1
        },
        "roughnessFactor": 0.6
      }
    }
  ],
  "meshes": [
    {
      "name": "Object_0",
      "primitives": [
        {
          "attributes": {
            "NORMAL": 1,
            "POSITION": 0,
            "TEXCOORD_0": 2
          },
          "indices": 3,
          "material": 0,
          "mode": 4
        }
      ]
    },
    {
      "name": "Object_1",
      "primitives": [
        {
          "attributes": {
            "NORMAL": 5,
            "POSITION": 4,
            "TEXCOORD_0": 6
          },
          "indices": 7,
          "material": 0,
          "mode": 4
        }
      ]
    },
    {
      "name": "Object_2",
      "primitives": [
        {
          "attributes": {
            "NORMAL": 9,
            "POSITION": 8,
            "TEXCOORD_0": 10
          },
          "indices": 11,
          "material": 1,
          "mode": 4
        }
      ]
    },
    {
      "name": "Object_3",
      "primitives": [
        {
          "attributes": {
            "NORMAL": 13,
            "POSITION": 12,
            "TEXCOORD_0": 14
          },
          "indices": 15,
          "material": 1,
          "mode": 4
        }
      ]
    }
  ],
  "nodes": [
    {
      "children": [
        1
      ],
      "matrix": [
        -1.0,
        -1.6081226229577284e-16,
        -2.8327693431939995e-16,
        0.0,
        1.6081226229577292e-16,
        -1.0,
        -4.440892098500626e-16,
        0.0,
        -2.832769343193999e-16,
        -4.440892098500626e-16,
        1.0,
        0.0,
        -1080.1829833984375,
        420.8724060058595,
        -420.87240600585926,
        1.0
      ],
      "name": "Sketchfab_model"
    },
    {
      "children": [
        2,
        3,
        4,
        5
      ],
      "name": "Coin purse_FB.obj.cleaner.materialmerger.gles"
    },
    {
      "mesh": 0,
      "name": "Object_2"
    },
    {
      "mesh": 1,
      "name": "Object_3"
    },
    {
      "mesh": 2,
      "name": "Object_4"
    },
    {
      "mesh": 3,
      "name": "Object_5"
    }
  ],
  "samplers": [
    {
      "magFilter": 9729,
      "minFilter": 9987,
      "wrapS": 10497,
      "wrapT": 10497
    }
  ],
  "scene": 0,
  "scenes": [
    {
      "name": "Sketchfab_Scene",
      "nodes": [
        0
      ]
    }
  ],
  "textures": [
    {
      "sampler": 0,
      "source": 0
    },
    {
      "sampler": 0,
      "source": 1
    },
    {
      "sampler": 0,
      "source": 2
    }
  ]
}
