{
  "accessors": [
    {
      "bufferView": 2,
      "componentType": 5126,
      "count": 13420,
      "max": [
        0.14890100061893463,
        0.1358170062303543,
        0.3245599865913391
      ],
      "min": [
        -0.2906160056591034,
        -0.34965699911117554,
        0.01822900027036667
      ],
      "type": "VEC3"
    },
    {
      "bufferView": 2,
      "byteOffset": 161040,
      "componentType": 5126,
      "count": 13420,
      "max": [
        1.0,
        1.0,
        1.0
      ],
      "min": [
        -1.0,
        -1.0,
        -1.0
      ],
      "type": "VEC3"
    },
    {
      "bufferView": 3,
      "componentType": 5126,
      "count": 13420,
      "max": [
        1.0,
        1.0,
        1.0,
        1.0
      ],
      "min": [
        -0.9251083731651306,
        -1.0,
        -1.0,
        1.0
      ],
      "type": "VEC4"
    },
    {
      "bufferView": 1,
      "componentType": 5126,
      "count": 13420,
      "max": [
        0.9379159808158875,
        0.9895619750022888
      ],
      "min": [
        0.0018720000516623259,
        0.0019920000340789557
      ],
      "type": "VEC2"
    },
    {
      "bufferView": 0,
      "componentType": 5125,
      "count": 37857,
      "type": "SCALAR"
    },
    {
      "bufferView": 2,
      "byteOffset": 322080,
      "componentType": 5126,
      "count": 923,
      "max": [
        -0.19954299926757813,
        -0.22391100227832794,
        0.07743000239133835
      ],
      "min": [
        -0.22564999759197235,
        -0.2748979926109314,
        0.07619699835777283
      ],
      "type": "VEC3"
    },
    {
      "bufferView": 2,
      "byteOffset": 333156,
      "componentType": 5126,
      "count": 923,
      "max": [
        0.9998003840446472,
        0.9999962449073792,
        1.0
      ],
      "min": [
        -1.0,
        -1.0,
        -5.899999450775795e-05
      ],
      "type": "VEC3"
    },
    {
      "bufferView": 1,
      "byteOffset": 107360,
      "componentType": 5126,
      "count": 923,
      "max": [
        0.8856430053710938,
        0.990011990070343
      ],
      "min": [
        0.0018720000516623259,
        0.8605210185050964
      ],
      "type": "VEC2"
    },
    {
      "bufferView": 0,
      "byteOffset": 151428,
      "componentType": 5125,
      "count": 2997,
      "type": "SCALAR"
    },
    {
      "bufferView": 2,
      "byteOffset": 344232,
      "componentType": 5126,
      "count": 6988,
      "max": [
        0.027486000210046768,
        0.053227998316287994,
        0.30643999576568604
      ],
      "min": [
        -0.1892160028219223,
        -0.19925299286842346,
        0.027633000165224075
      ],
      "type": "VEC3"
    },
    {
      "bufferView": 2,
      "byteOffset": 428088,
      "componentType": 5126,
      "count": 6988,
      "max": [
        0.9999627470970154,
        1.0,
        1.0
      ],
      "min": [
        -0.999888002872467,
        -1.0,
        -1.0
      ],
      "type": "VEC3"
    },
    {
      "bufferView": 1,
      "byteOffset": 114744,
      "componentType": 5126,
      "count": 6988,
      "max": [
        0.9379159808158875,
        0.9980080127716064
      ],
      "min": [
        0.0018720000516623259,
        0.8129420280456543
      ],
      "type": "VEC2"
    },
    {
      "bufferView": 0,
      "byteOffset": 163416,
      "componentType": 5125,
      "count": 24000,
      "type": "SCALAR"
    }
  ],
  "asset": {
    "extras": {
      "author": "DJHaski (https://sketchfab.com/djhaski)",
      "license": "CC-BY-4.0 (http://creativecommons.org/licenses/by/4.0/)",
      "source": "https://sketchfab.com/3d-models/purse-and-coins-27d6ea58b33e4c58a33113cabd4e5226",
      "title": "Purse and coins"
    },
    "generator": "Sketchfab-12.65.0",
    "version": "2.0"
  },
  "bufferViews": [
    {
      "buffer": 0,
      "byteLength": 259416,
      "name": "floatBufferViews",
      "target": 34963
    },
    {
      "buffer": 0,
      "byteLength": 170648,
      "byteOffset": 259416,
      "byteStride": 8,
      "name": "floatBufferViews",
      "target": 34962
    },
    {
      "buffer": 0,
      "byteLength": 511944,
      "byteOffset": 430064,
      "byteStride": 12,
      "name": "floatBufferViews",
      "target": 34962
    },
    {
      "buffer": 0,
      "byteLength": 214720,
      "byteOffset": 942008,
      "byteStride": 16,
      "name": "floatBufferViews",
      "target": 34962
    }
  ],
  "buffers": [
    {
      "byteLength": 1156728,
      "uri": "scene.bin"
    }
  ],
  "images": [
    {
      "uri": "textures/initialShadingGroup_baseColor.png"
    },
    {
      "uri": "textures/initialShadingGroup_metallicRoughness.png"
    },
    {
      "uri": "textures/initialShadingGroup_normal.png"
    },
    {
      "uri": "textures/typeBlinn1SG_baseColor.png"
    },
    {
      "uri": "textures/typeBlinn1SG_metallicRoughness.png"
    },
    {
      "uri": "textures/typeBlinnSG_baseColor.png"
    },
    {
      "uri": "textures/typeBlinnSG_metallicRoughness.png"
    }
  ],
  "materials": [
    {
      "doubleSided": true,
      "name": "initialShadingGroup",
      "normalTexture": {
        "index": 2
      },
      "pbrMetallicRoughness": {
        "baseColorTexture": {
          "index": 0
        },
        "metallicRoughnessTexture": {
          "index": 1
        }
      }
    },
    {
      "doubleSided": true,
      "name": "typeBlinn1SG",
      "pbrMetallicRoughness": {
        "baseColorTexture": {
          "index": 3
        },
        "metallicRoughnessTexture": {
          "index": 4
        }
      }
    },
    {
      "doubleSided": true,
      "name": "typeBlinnSG",
      "pbrMetallicRoughness": {
        "baseColorTexture": {
          "index": 5
        },
        "metallicFactor": 0.9806179279985895,
        "metallicRoughnessTexture": {
          "index": 6
        }
      }
    }
  ],
  "meshes": [
    {
      "name": "Object_0",
      "primitives": [
        {
          "attributes": {
            "NORMAL": 1,
            "POSITION": 0,
            "TANGENT": 2,
            "TEXCOORD_0": 3
          },
          "indices": 4,
          "material": 0,
          "mode": 4
        }
      ]
    },
    {
      "name": "Object_1",
      "primitives": [
        {
          "attributes": {
            "NORMAL": 6,
            "POSITION": 5,
            "TEXCOORD_0": 7
          },
          "indices": 8,
          "material": 1,
          "mode": 4
        }
      ]
    },
    {
      "name": "Object_2",
      "primitives": [
        {
          "attributes": {
            "NORMAL": 10,
            "POSITION": 9,
            "TEXCOORD_0": 11
          },
          "indices": 12,
          "material": 2,
          "mode": 4
        }
      ]
    }
  ],
  "nodes": [
    {
      "children": [
        1
      ],
      "matrix": [
        0.6024707555770874,
        0.0,
        0.0,
        0.0,
        0.0,
        1.3377538090099947e-16,
        -0.6024707555770874,
        0.0,
        0.0,
        0.6024707555770874,
        1.3377538090099947e-16,
        0.0,
        0.0,
        0.0,
        0.0,
        1.0
      ],
      "name": "Sketchfab_model"
    },
    {
      "children": [
        2,
        3,
        4
      ],
      "name": "purseAndCoins.obj.cleaner.materialmerger.gles"
    },
    {
      "mesh": 0,
      "name": "Object_2"
    },
    {
      "mesh": 1,
      "name": "Object_3"
    },
    {
      "mesh": 2,
      "name": "Object_4"
    }
  ],
  "samplers": [
    {
      "magFilter": 9729,
      "minFilter": 9987,
      "wrapS": 10497,
      "wrapT": 10497
    }
  ],
  "scene": 0,
  "scenes": [
    {
      "name": "Sketchfab_Scene",
      "nodes": [
        0
      ]
    }
  ],
  "textures": [
    {
      "sampler": 0,
      "source": 0
    },
    {
      "sampler": 0,
      "source": 1
    },
    {
      "sampler": 0,
      "source": 2
    },
    {
      "sampler": 0,
      "source": 3
    },
    {
      "sampler": 0,
      "source": 4
    },
    {
      "sampler": 0,
      "source": 5
    },
    {
      "sampler": 0,
      "source": 6
    }
  ]
}
