{
  "accessors": [
    {
      "bufferView": 2,
      "componentType": 5126,
      "count": 5469,
      "max": [
        0.20186200737953186,
        0.20234699547290802,
        1.0883339643478394
      ],
      "min": [
        -0.20207099616527557,
        0.035333000123500824,
        0.5835310220718384
      ],
      "type": "VEC3"
    },
    {
      "bufferView": 2,
      "byteOffset": 65628,
      "componentType": 5126,
      "count": 5469,
      "max": [
        0.9996760487556458,
        0.9998621940612793,
        0.9994813799858093
      ],
      "min": [
        -0.9996950030326843,
        -0.9999510049819946,
        -0.9910368323326111
      ],
      "type": "VEC3"
    },
    {
      "bufferView": 3,
      "componentType": 5126,
      "count": 5469,
      "max": [
        0.9999982118606567,
        0.9997953176498413,
        0.9952439069747925,
        1.0
      ],
      "min": [
        -0.6721872687339783,
        -0.9997746348381042,
        -0.9999983310699463,
        -1.0
      ],
      "type": "VEC4"
    },
    {
      "bufferView": 1,
      "componentType": 5126,
      "count": 5469,
      "max": [
        1.0,
        0.5152739882469177
      ],
      "min": [
        0.0,
        -0.0
      ],
      "type": "VEC2"
    },
    {
      "bufferView": 0,
      "componentType": 5125,
      "count": 31104,
      "type": "SCALAR"
    },
    {
      "bufferView": 2,
      "byteOffset": 131256,
      "componentType": 5126,
      "count": 21332,
      "max": [
        0.20197699964046478,
        0.025698000565171242,
        1.0918920040130615
      ],
      "min": [
        -0.20197400450706482,
        -0.15617699921131134,
        0.5998510122299194
      ],
      "type": "VEC3"
    },
    {
      "bufferView": 2,
      "byteOffset": 387240,
      "componentType": 5126,
      "count": 21332,
      "max": [
        0.9998366236686707,
        0.9999932050704956,
        0.9984922409057617
      ],
      "min": [
        -0.9998569488525391,
        -0.9999973773956299,
        -0.9999076128005981
      ],
      "type": "VEC3"
    },
    {
      "bufferView": 3,
      "byteOffset": 87504,
      "componentType": 5126,
      "count": 21332,
      "max": [
        0.9383264780044556,
        0.9980317950248718,
        0.9822026491165161,
        1.0
      ],
      "min": [
        -0.9999992847442627,
        -0.9967614412307739,
        -0.9999955892562866,
        -1.0
      ],
      "type": "VEC4"
    },
    {
      "bufferView": 1,
      "byteOffset": 43752,
      "componentType": 5126,
      "count": 21332,
      "max": [
        1.0,
        0.5152739882469177
      ],
      "min": [
        0.0,
        -0.0
      ],
      "type": "VEC2"
    },
    {
      "bufferView": 0,
      "byteOffset": 124416,
      "componentType": 5125,
      "count": 124416,
      "type": "SCALAR"
    },
    {
      "bufferView": 2,
      "byteOffset": 643224,
      "componentType": 5126,
      "count": 6726,
      "max": [
        0.14460399746894836,
        0.06868000328540802,
        1.0919419527053833
      ],
      "min": [
        -0.1431030035018921,
        0.008921000175178051,
        1.0815149545669556
      ],
      "type": "VEC3"
    },
    {
      "bufferView": 2,
      "byteOffset": 723936,
      "componentType": 5126,
      "count": 6726,
      "max": [
        0.9989246726036072,
        0.999958872795105,
        0.9994161128997803
      ],
      "min": [
        -0.9997276663780212,
        -0.9998705387115479,
        -0.9931800961494446
      ],
      "type": "VEC3"
    },
    {
      "bufferView": 1,
      "byteOffset": 214408,
      "componentType": 5126,
      "count": 6726,
      "max": [
        1.0,
        1.0
      ],
      "min": [
        0.0,
        0.0
      ],
      "type": "VEC2"
    },
    {
      "bufferView": 0,
      "byteOffset": 622080,
      "componentType": 5125,
      "count": 27636,
      "type": "SCALAR"
    },
    {
      "bufferView": 2,
      "byteOffset": 804648,
      "componentType": 5126,
      "count": 6726,
      "max": [
        0.19830699265003204,
        0.06806600093841553,
        0.7633569836616516
      ],
      "min": [
        0.17959900200366974,
        -0.025790000334382057,
        0.6875929832458496
      ],
      "type": "VEC3"
    },
    {
      "bufferView": 2,
      "byteOffset": 885360,
      "componentType": 5126,
      "count": 6726,
      "max": [
        0.9988468885421753,
        0.9996679425239563,
        0.9825100898742676
      ],
      "min": [
        -0.9994891285896301,
        -0.999172568321228,
        -0.9996572136878967
      ],
      "type": "VEC3"
    },
    {
      "bufferView": 1,
      "byteOffset": 268216,
      "componentType": 5126,
      "count": 6726,
      "max": [
        1.0,
        1.0
      ],
      "min": [
        0.0,
        0.0
      ],
      "type": "VEC2"
    },
    {
      "bufferView": 0,
      "byteOffset": 732624,
      "componentType": 5125,
      "count": 27636,
      "type": "SCALAR"
    },
    {
      "bufferView": 2,
      "byteOffset": 966072,
      "componentType": 5126,
      "count": 6726,
      "max": [
        -0.1796959936618805,
        0.06882999837398529,
        0.7629430294036865
      ],
      "min": [
        -0.19819499552249908,
        -0.026791000738739967,
        0.6879339814186096
      ],
      "type": "VEC3"
    },
    {
      "bufferView": 2,
      "byteOffset": 1046784,
      "componentType": 5126,
      "count": 6726,
      "max": [
        0.998924195766449,
        0.9993485808372498,
        0.9998430609703064
      ],
      "min": [
        -0.9991503357887268,
        -0.9992016553878784,
        -0.9999375343322754
      ],
      "type": "VEC3"
    },
    {
      "bufferView": 1,
      "byteOffset": 322024,
      "componentType": 5126,
      "count": 6726,
      "max": [
        1.0,
        1.0
      ],
      "min": [
        0.0,
        0.0
      ],
      "type": "VEC2"
    },
    {
      "bufferView": 0,
      "byteOffset": 843168,
      "componentType": 5125,
      "count": 27636,
      "type": "SCALAR"
    },
    {
      "bufferView": 2,
      "byteOffset": 1127496,
      "componentType": 5126,
      "count": 8920,
      "max": [
        0.19829200208187103,
        0.07155399769544601,
        1.0914939641952515
      ],
      "min": [
        -0.18994499742984772,
        -0.03294700011610985,
        0.6907320022583008
      ],
      "type": "VEC3"
    },
    {
      "bufferView": 2,
      "byteOffset": 1234536,
      "componentType": 5126,
      "count": 8920,
      "max": [
        0.996732771396637,
        0.9999350309371948,
        0.9936506152153015
      ],
      "min": [
        -0.9954836368560791,
        -0.9999786615371704,
        -0.9736081957817078
      ],
      "type": "VEC3"
    },
    {
      "bufferView": 1,
      "byteOffset": 375832,
      "componentType": 5126,
      "count": 8920,
      "max": [
        1.0026979446411133,
        0.9713280200958252
      ],
      "min": [
        0.006649999879300594,
        0.26834699511528015
      ],
      "type": "VEC2"
    },
    {
      "bufferView": 0,
      "byteOffset": 953712,
      "componentType": 5125,
      "count": 43200,
      "type": "SCALAR"
    },
    {
      "bufferView": 2,
      "byteOffset": 1341576,
      "componentType": 5126,
      "count": 4460,
      "max": [
        -0.1280129998922348,
        0.07228299975395203,
        1.0917340517044067
      ],
      "min": [
        -0.19822700321674347,
        -0.031113000586628914,
        0.7409849762916565
      ],
      "type": "VEC3"
    },
    {
      "bufferView": 2,
      "byteOffset": 1395096,
      "componentType": 5126,
      "count": 4460,
      "max": [
        0.9955053925514221,
        0.9999350309371948,
        0.9988805651664734
      ],
      "min": [
        -0.9954836368560791,
        -0.9999786615371704,
        -0.9825103282928467
      ],
      "type": "VEC3"
    },
    {
      "bufferView": 1,
      "byteOffset": 447192,
      "componentType": 5126,
      "count": 4460,
      "max": [
        1.0026979446411133,
        0.9713280200958252
      ],
      "min": [
        0.006649999879300594,
        0.26834699511528015
      ],
      "type": "VEC2"
    },
    {
      "bufferView": 0,
      "byteOffset": 1126512,
      "componentType": 5125,
      "count": 21600,
      "type": "SCALAR"
    }
  ],
  "asset": {
    "extras": {
      "author": "FractalSpace (https://sketchfab.com/fractalspace)",
      "license": "CC-BY-4.0 (http://creativecommons.org/licenses/by/4.0/)",
      "source": "https://sketchfab.com/3d-models/cuirass-c79e2d1129034dde86f6ec404d7f16f1",
      "title": "Cuirass"
    },
    "generator": "Sketchfab-15.61.0",
    "version": "2.0"
  },
  "bufferViews": [
    {
      "buffer": 0,
      "byteLength": 1212912,
      "name": "floatBufferViews",
      "target": 34963
    },
    {
      "buffer": 0,
      "byteLength": 482872,
      "byteOffset": 1212912,
      "byteStride": 8,
      "name": "floatBufferViews",
      "target": 34962
    },
    {
      "buffer": 0,
      "byteLength": 1448616,
      "byteOffset": 1695784,
      "byteStride": 12,
      "name": "floatBufferViews",
      "target": 34962
    },
    {
      "buffer": 0,
      "byteLength": 428816,
      "byteOffset": 3144400,
      "byteStride": 16,
      "name": "floatBufferViews",
      "target": 34962
    }
  ],
  "buffers": [
    {
      "byteLength": 3573216,
      "uri": "scene.bin"
    }
  ],
  "images": [
    {
      "uri": "textures/ArmourBack_baseColor.jpeg"
    },
    {
      "uri": "textures/ArmourBack_metallicRoughness.png"
    },
    {
      "uri": "textures/ArmourBack_normal.png"
    },
    {
      "uri": "textures/ArmourFront_metallicRoughness.png"
    },
    {
      "uri": "textures/ArmourFront_normal.png"
    },
    {
      "uri": "textures/Brass_baseColor.jpeg"
    },
    {
      "uri": "textures/Brass_metallicRoughness.png"
    },
    {
      "uri": "textures/Strap_A_baseColor.jpeg"
    },
    {
      "uri": "textures/Strap_A_metallicRoughness.png"
    }
  ],
  "materials": [
    {
      "doubleSided": true,
      "name": "ArmourBack",
      "normalTexture": {
        "index": 2
      },
      "pbrMetallicRoughness": {
        "baseColorTexture": {
          "index": 0
        },
        "metallicRoughnessTexture": {
          "index": 1
        }
      }
    },
    {
      "doubleSided": true,
      "name": "ArmourFront",
      "normalTexture": {
        "index": 4
      },
      "pbrMetallicRoughness": {
        "baseColorTexture": {
          "index": 0
        },
        "metallicRoughnessTexture": {
          "index": 3
        }
      }
    },
    {
      "doubleSided": true,
      "name": "Brass",
      "pbrMetallicRoughness": {
        "baseColorTexture": {
          "index": 5
        },
        "metallicRoughnessTexture": {
          "index": 6
        }
      }
    },
    {
      "doubleSided": true,
      "name": "Strap_A",
      "pbrMetallicRoughness": {
        "baseColorTexture": {
          "index": 7
        },
        "metallicFactor": 0.0,
        "metallicRoughnessTexture": {
          "index": 8
        }
      }
    }
  ],
  "meshes": [
    {
      "name": "Object_0",
      "primitives": [
        {
          "attributes": {
            "NORMAL": 1,
            "POSITION": 0,
            "TANGENT": 2,
            "TEXCOORD_0": 3
          },
          "indices": 4,
          "material": 0,
          "mode": 4
        }
      ]
    },
    {
      "name": "Object_1",
      "primitives": [
        {
          "attributes": {
            "NORMAL": 6,
            "POSITION": 5,
            "TANGENT": 7,
            "TEXCOORD_0": 8
          },
          "indices": 9,
          "material": 1,
          "mode": 4
        }
      ]
    },
    {
      "name": "Object_2",
      "primitives": [
        {
          "attributes": {
            "NORMAL": 11,
            "POSITION": 10,
            "TEXCOORD_0": 12
          },
          "indices": 13,
          "material": 2,
          "mode": 4
        }
      ]
    },
    {
      "name": "Object_3",
      "primitives": [
        {
          "attributes": {
            "NORMAL": 15,
            "POSITION": 14,
            "TEXCOORD_0": 16
          },
          "indices": 17,
          "material": 2,
          "mode": 4
        }
      ]
    },
    {
      "name": "Object_4",
      "primitives": [
        {
          "attributes": {
            "NORMAL": 19,
            "POSITION": 18,
            "TEXCOORD_0": 20
          },
          "indices": 21,
          "material": 2,
          "mode": 4
        }
      ]
    },
    {
      "name": "Object_5",
      "primitives": [
        {
          "attributes": {
            "NORMAL": 23,
            "POSITION": 22,
            "TEXCOORD_0": 24
          },
          "indices": 25,
          "material": 3,
          "mode": 4
        }
      ]
    },
    {
      "name": "Object_6",
      "primitives": [
        {
          "attributes": {
            "NORMAL": 27,
            "POSITION": 26,
            "TEXCOORD_0": 28
          },
          "indices": 29,
          "material": 3,
          "mode": 4
        }
      ]
    }
  ],
  "nodes": [
    {
      "children": [
        1
      ],
      "matrix": [
        1.1936101913452148,
        0.0,
        0.0,
        0.0,
        0.0,
        2.6503470337173925e-16,
        -1.1936101913452148,
        0.0,
        0.0,
        1.1936101913452148,
        2.6503470337173925e-16,
        0.0,
        0.0,
        0.0,
        0.0,
        1.0
      ],
      "name": "Sketchfab_model"
    },
    {
      "children": [
        2,
        3,
        4,
        5,
        6,
        7,
        8
      ],
      "name": "Cuirass.obj.cleaner.materialmerger.gles"
    },
    {
      "mesh": 0,
      "name": "Object_2"
    },
    {
      "mesh": 1,
      "name": "Object_3"
    },
    {
      "mesh": 2,
      "name": "Object_4"
    },
    {
      "mesh": 3,
      "name": "Object_5"
    },
    {
      "mesh": 4,
      "name": "Object_6"
    },
    {
      "mesh": 5,
      "name": "Object_7"
    },
    {
      "mesh": 6,
      "name": "Object_8"
    }
  ],
  "samplers": [
    {
      "magFilter": 9729,
      "minFilter": 9987,
      "wrapS": 10497,
      "wrapT": 10497
    }
  ],
  "scene": 0,
  "scenes": [
    {
      "name": "Sketchfab_Scene",
      "nodes": [
        0
      ]
    }
  ],
  "textures": [
    {
      "sampler": 0,
      "source": 0
    },
    {
      "sampler": 0,
      "source": 1
    },
    {
      "sampler": 0,
      "source": 2
    },
    {
      "sampler": 0,
      "source": 3
    },
    {
      "sampler": 0,
      "source": 4
    },
    {
      "sampler": 0,
      "source": 5
    },
    {
      "sampler": 0,
      "source": 6
    },
    {
      "sampler": 0,
      "source": 7
    },
    {
      "sampler": 0,
      "source": 8
    }
  ]
}
